# xmcd CD database file
#
# Track frame offsets:
#	150
#	10230
#	21242
#	32902
#	46880
#	57460
#	70275
#	81880
#	90770
#	100202
#	110165
#	119135
#	129307
#	138095
#	148845
#	160740
#	173637
#
# Disc length: 2439 seconds
#
# Revision: 2
# Processed by: cddbd v1.5.2PL0 Copyright (c) Steve Scherf et al.
# Submitted via: CDex 1.51
#
DISCID=e7098511
DTITLE=Ike Turner's Kings Of Rhythm - Cobra Session 1958
DYEAR=1900
DGENRE=Blues
TTITLE0=I Know You Don't Love Me More - Ike Turner's Kings Of Rhythm
TTITLE1=Matchbox - Ike Turner's Kings Of Rhythm
TTITLE2=Matchbox (Alternate Take) - Ike Turner's Kings Of Rhythm
TTITLE3=Down And Out - Ike Turner's Kings Of Rhythm
TTITLE4=You've Got To Lose - Ike Turner's Kings Of Rhythm
TTITLE5=You've Got To Lose (Alternate Take) - Ike Turner's Kings Of Rhythm
TTITLE6=You Keep On Worryin' Me - Ike Turner's Kings Of Rhythm
TTITLE7=Box Top - Ike Turner's Kings Of Rhythm
TTITLE8=Walking Down The Aisle (Alternate Take) - Ike Turner's Kings Of Rhythm
TTITLE9=Walking Down The Aisle - Ike Turner's Kings Of Rhythm
TTITLE10=My Life Depends On You - Betty Everett with Ike Turner's Kings Of Rhythm
TTITLE11=My Love - Betty Everett with Ike Turner's Kings Of Rhythm
TTITLE12=Ain't Gonna Cry - Betty Everett with Ike Turner's Kings Of Rhythm
TTITLE13=Killer Diller - Betty Everett with Ike Turner's Kings Of Rhythm
TTITLE14=Killer Diller (Alternate Take) - Betty Everett with Ike Turner's Kings Of Rhythm
TTITLE15=I'll Weep No More - Betty Everett with Ike Turner's Kings Of Rhythm
TTITLE16=Tell Me Darling - Betty Everett with Ike Turner's Kings Of Rhythm
EXTD=
EXTT0=
EXTT1=
EXTT2=
EXTT3=
EXTT4=
EXTT5=
EXTT6=
EXTT7=
EXTT8=
EXTT9=
EXTT10=
EXTT11=
EXTT12=
EXTT13=
EXTT14=
EXTT15=
EXTT16=
PLAYORDER=
